<?xml version="1.0" encoding="utf-8"?>
<!-- Generator: Adobe Illustrator 25.2.3, SVG Export Plug-In . SVG Version: 6.00 Build 0)  -->
<svg version="1.1" id="Calque_1" xmlns="http://www.w3.org/2000/svg" xmlns:xlink="http://www.w3.org/1999/xlink" x="0px" y="0px"
	 viewBox="0 0 1280 1221" style="enable-background:new 0 0 1280 1221;" xml:space="preserve">
<style type="text/css">
	.st0{fill:#FBC981;}
</style>
<g transform="translate(0.000000,1221.000000) scale(0.100000,-0.100000)">
	<path class="st0" d="M0,6303C1,46-1,314,44,205C85,107,154,53,280,18C315,8,1592,5,6278,3l5952-3v215v215H6330H430v5695v5695h5970
		h5970v-919v-919l-27-5c-39-7-189-39-388-82c-315-68-400-86-470-100c-38-8-112-23-162-34c-51-12-95-21-98-21s-5,35-5,78
		c-1,151-75,232-213,232c-65,0-114-19-154-59c-43-43-63-92-76-184l-12-82l-50-6c-108-13-313-39-375-49c-36-5-123-17-195-26
		c-71-9-177-22-235-30s-175-23-260-34c-85-10-225-29-310-40s-191-25-235-30c-139-17-387-50-455-60c-36-6-119-17-185-26
		c-66-8-190-24-275-34c-165-21-399-52-570-75c-148-19-415-54-545-70c-145-18-326-42-400-55c-33-5-89-12-125-15c-36-4-108-13-160-20
		c-52-8-151-21-220-30c-69-8-192-24-275-35c-82-11-202-27-265-35s-185-24-270-35s-229-29-318-40c-90-11-173-22-185-25s-80-12-152-21
		c-71-8-177-22-235-29c-182-25-402-53-840-110c-63-8-133-17-155-20c-78-11-532-70-690-90c-66-8-147-19-180-25c-33-5-93-13-132-16
		c-66-6-73-9-73-28c0-11,14-95,30-186c17-91,33-178,36-195c3-16,12-66,20-110c9-44,24-129,35-190c10-60,25-144,33-185
		c18-96,53-286,77-420c10-58,26-143,34-190c9-47,18-96,20-110s11-63,20-110s27-148,41-225c46-254,76-421,88-485c3-14,12-65,21-115
		c21-119,51-284,77-420c11-60,26-146,33-190c8-44,16-91,20-105c3-14,12-63,20-110s17-96,19-110c3-14,12-63,20-110
		c13-73,28-153,51-275c3-16,12-68,20-115c18-103,22-126,30-151c6-19,65-19,3621-19h3614l-4-67c-5-105-26-359-36-454
		c-6-47-10-111-10-141c0-31-3-63-6-72c-6-15-329-16-3563-16H3203l-61-31c-84-42-114-91-114-188c0-43,6-80,16-99c21-40,78-87,125-101
		c28-8,992-11,3727-11h3689l51,24c63,29,100,76,113,142c8,41,21,193,37,454c2,25,10,137,19,250c8,113,22,304,30,425s19,265,25,320
		c5,55,14,172,20,260c5,88,12,183,14,210c2,28,9,120,15,205s16,207,21,270c6,63,17,214,26,335c16,233,21,275,35,275c5,0,9,90,9,200
		c0,109,4,232,10,272c5,40,14,153,21,250c21,331,36,537,49,678c6,63,17,210,25,325c26,395,45,650,55,750c5,55,12,152,16,216
		c6,116,6,117,33,123c14,3,60,13,101,22c41,8,84,18,95,20c85,16,487,102,610,129c39,8,102,22,140,30c39,8,147,30,240,50
		c94,20,190,40,215,45s77,17,115,28l70,18l3,1287l2,1287H6400H0V6303z M10735,9238c-3-24-10-106-16-183c-5-77-18-261-29-410
		c-11-148-27-362-35-475s-17-230-20-260c-6-62-26-335-50-705c-9-137-19-260-21-272l-4-23h-644h-644l-6,188c-4,103-9,252-10,332
		c-6,297-26,992-36,1208c-6,122-10,273-10,336v113l93,12c50,6,160,20,242,31c83,10,222,28,310,40s207,28,265,35
		c123,16,401,53,480,65c30,4,74,8,97,9l43,1L10735,9238z M8763,8923c12-181,27-692,54-1810l5-203H7736c-1045,0-1086,1-1086,18
		c0,10-4,65-10,123c-9,101-31,417-36,529c-4,97-24,391-34,520c-20,237-39,625-31,633c7,7,59,14,401,57c85,11,225,29,310,40
		c85,12,223,29,305,40c83,10,220,28,305,40s205,27,265,35c240,29,363,45,425,55c84,13,116,17,166,19l41,1L8763,8923z M6085,8668
		c4-12,14-158,50-743c8-132,19-303,25-380c11-144,27-394,36-547l6-88h-805h-804l-7,68c-3,37-11,128-16,202c-13,174-18,232-25,300
		c-4,46-16,183-30,372c-16,209-27,340-35,428c-19,200-20,190,16,190c17,0,55,4,85,10c51,9,274,39,439,59c211,26,331,42,390,51
		c36,5,124,17,195,26c129,16,290,37,395,53C6080,8681,6080,8681,6085,8668z M4028,8318c7-51,16-163,22-248s15-198,20-250
		c6-52,15-158,21-234s12-160,15-185c2-25,11-138,19-251c9-113,18-213,21-222c5-17-23-18-490-18c-552,0-497-7-510,70
		c-3,19-8,46-11,60c-3,13-12,65-20,115c-9,49-18,104-21,120c-3,17-16,86-29,155s-27,143-31,165s-9,48-10,57c-2,9-10,54-19,100
		c-8,46-17,94-19,108c-6,28-29,157-55,305l-18,100l96,12c53,6,170,21,261,33c217,29,330,43,535,70c93,11,172,23,174,26
		c2,2,12,4,21,4C4014,8410,4019,8394,4028,8318z M4184,6438c4-24,13-137,22-253c8-115,22-282,29-370c8-88,23-275,34-415
		c12-140,25-302,31-360c5-57,6-108,2-112c-5-5-181-7-392-6l-384,3l-8,30c-8,28-29,143-63,340c-8,44-23,130-35,190
		c-23,124-26,138-46,250c-8,44-23,128-34,188c-11,59-29,155-40,215c-10,59-28,157-39,217c-12,61-21,113-21,118c0,4,211,7,469,7h470
		L4184,6438z M6234,6433c3-27,10-140,16-253s15-250,20-305s14-197,20-315s15-260,20-315s12-151,16-213l6-112l-788,2l-789,3l-7,85
		c-6,86-35,442-63,780c-9,102-17,205-19,230c-7,92-26,327-32,393l-7,67h801h800L6234,6433z M8844,6268c3-117,5-220,5-228
		c-2-33,21-863,26-987l7-133H7832H6782l-6,58c-3,31-8,102-12,157c-3,55-7,125-9,155s-10,159-19,285c-35,510-56,845-56,878v27h1079
		h1079L8844,6268z M10530,6459c0-11-4-62-10-112c-5-51-19-222-30-382c-12-159-30-400-40-535c-11-135-22-297-25-360
		c-4-63-9-123-11-132c-5-17-40-18-550-18h-544v83c-1,149-30,1239-36,1360l-7,117h627C10529,6480,10530,6480,10530,6459z"/>
	<path class="st0" d="M9785,3159c-226-32-434-136-596-298c-91-92-143-166-199-285c-72-152-93-258-88-443c5-169,24-253,89-392
		c44-94,145-236,216-302c191-178,470-289,723-289c319,0,627,146,823,390c116,145,183,302,214,500c14,91,15,118,3,210
		c-42,347-221,619-520,787C10259,3145,10009,3191,9785,3159z"/>
	<path class="st0" d="M4505,2704c-168-27-341-113-458-228c-91-90-154-192-198-321c-22-63-24-87-23-230c0-146,2-166,26-232
		c76-212,202-354,403-453c212-105,419-117,640-39c210,74,388,245,469,451c31,80,56,202,56,279c0,128-62,320-139,432
		c-39,57-140,159-196,197c-68,47-175,97-256,120C4756,2701,4572,2714,4505,2704z"/>
</g>
</svg>
