<?xml version="1.0" encoding="utf-8"?>
<!-- Generator: Adobe Illustrator 25.2.3, SVG Export Plug-In . SVG Version: 6.00 Build 0)  -->
<svg version="1.1" id="Layer_1" xmlns="http://www.w3.org/2000/svg" xmlns:xlink="http://www.w3.org/1999/xlink" x="0px" y="0px"
	 viewBox="0 0 20 20" style="enable-background:new 0 0 20 20;" xml:space="preserve">
<style type="text/css">
	.st0{fill:#DC6B29;}
</style>
<path class="st0" d="M18.3,11.8L20,3.6c0.1-0.6-0.3-1.1-0.8-1.1H5.5L5.2,0.7C5.1,0.3,4.8,0,4.4,0H0.8C0.4,0,0,0.4,0,0.9v0.6
	c0,0.5,0.4,0.9,0.8,0.9h2.4l2.4,13.4c-0.6,0.4-1,1.1-1,1.9C4.7,19,5.6,20,6.7,20s1.9-1,1.9-2.2c0-0.6-0.2-1.2-0.6-1.6h7.3
	c-0.4,0.4-0.6,1-0.6,1.6c0,1.2,0.9,2.2,1.9,2.2c1.1,0,1.9-1,1.9-2.2c0-0.9-0.4-1.6-1.1-2l0.2-0.9c0.1-0.6-0.3-1.1-0.8-1.1H7.6
	l-0.2-1.2h10.2C17.9,12.5,18.3,12.2,18.3,11.8z"/>
</svg>
